<?xml version="1.0" standalone="no"?>
<!DOCTYPE svg PUBLIC "-//W3C//DTD SVG 20010904//EN"
 "http://www.w3.org/TR/2001/REC-SVG-20010904/DTD/svg10.dtd">
<svg version="1.0" xmlns="http://www.w3.org/2000/svg"
 width="1024.000000pt" height="1024.000000pt" viewBox="0 0 1024.000000 1024.000000"
 preserveAspectRatio="xMidYMid meet">
<metadata>
Created by potrace 1.11, written by Peter Selinger 2001-2013
</metadata>
<g transform="translate(0.000000,1024.000000) scale(0.100000,-0.100000)"
fill="#000000" stroke="none">
<path d="M4887 9809 c-1169 -60 -2267 -548 -3092 -1376 -930 -933 -1428 -2221
-1364 -3533 79 -1634 994 -3103 2424 -3893 622 -343 1322 -540 2043 -576 174
-9 540 -1 634 14 13 2 52 6 88 10 574 54 1292 284 1795 575 47 27 88 50 90 50
8 0 237 149 338 220 506 358 916 793 1249 1325 154 247 306 550 399 800 17 44
35 89 39 100 22 47 127 391 145 472 53 238 65 295 70 333 3 25 8 52 10 60 6
22 21 142 40 310 18 166 24 549 11 710 -11 131 -17 194 -21 220 -2 14 -7 50
-10 80 -33 310 -181 881 -294 1135 -5 11 -26 61 -46 110 -117 283 -307 623
-499 895 -56 80 -226 297 -257 330 -8 8 -29 33 -48 55 -44 52 -199 211 -292
300 -484 460 -1105 827 -1774 1046 -220 73 -575 157 -770 183 -53 7 -188 24
-245 30 -153 17 -478 25 -663 15z"/>
</g>
</svg>
